<mxfile host="Electron" modified="2023-12-24T14:26:42.403Z" agent="Mozilla/5.0 (Windows NT 10.0; Win64; x64) AppleWebKit/537.36 (KHTML, like Gecko) draw.io/22.1.2 Chrome/114.0.5735.289 Electron/25.9.4 Safari/537.36" etag="w_sT51IzYDe7lThGd0nP" version="22.1.2" type="device">
  <diagram name="Page-1" id="sYlh2J3qcroE8akJQePD">
    <mxGraphModel dx="1050" dy="629" grid="1" gridSize="10" guides="1" tooltips="1" connect="1" arrows="1" fold="1" page="1" pageScale="1" pageWidth="850" pageHeight="1100" math="0" shadow="0">
      <root>
        <mxCell id="0" />
        <mxCell id="1" parent="0" />
        <mxCell id="ZVJcNq3bWCPfg_cjgLPd-1" value="Student&lt;font style=&quot;font-size: 25px;&quot;&gt;&lt;br style=&quot;font-size: 25px;&quot;&gt;&lt;/font&gt;" style="text;html=1;strokeColor=none;fillColor=none;align=center;verticalAlign=middle;whiteSpace=wrap;rounded=0;fontSize=25;" vertex="1" parent="1">
          <mxGeometry x="40" y="160" width="100" height="40" as="geometry" />
        </mxCell>
        <mxCell id="ZVJcNq3bWCPfg_cjgLPd-2" value="Student_ID" style="rounded=0;whiteSpace=wrap;html=1;fontSize=20;fontStyle=5" vertex="1" parent="1">
          <mxGeometry x="40" y="210" width="120" height="60" as="geometry" />
        </mxCell>
        <mxCell id="ZVJcNq3bWCPfg_cjgLPd-3" value="Fname" style="rounded=0;whiteSpace=wrap;html=1;fontSize=20;" vertex="1" parent="1">
          <mxGeometry x="160" y="210" width="120" height="60" as="geometry" />
        </mxCell>
        <mxCell id="ZVJcNq3bWCPfg_cjgLPd-4" value="Lname" style="rounded=0;whiteSpace=wrap;html=1;fontSize=20;" vertex="1" parent="1">
          <mxGeometry x="280" y="210" width="120" height="60" as="geometry" />
        </mxCell>
        <mxCell id="ZVJcNq3bWCPfg_cjgLPd-5" value="Academic Year" style="rounded=0;whiteSpace=wrap;html=1;fontSize=20;" vertex="1" parent="1">
          <mxGeometry x="530" y="210" width="150" height="60" as="geometry" />
        </mxCell>
        <mxCell id="ZVJcNq3bWCPfg_cjgLPd-6" value="Email" style="rounded=0;whiteSpace=wrap;html=1;fontSize=20;" vertex="1" parent="1">
          <mxGeometry x="680" y="210" width="120" height="60" as="geometry" />
        </mxCell>
        <mxCell id="ZVJcNq3bWCPfg_cjgLPd-7" value="Student_phone" style="text;html=1;strokeColor=none;fillColor=none;align=center;verticalAlign=middle;whiteSpace=wrap;rounded=0;fontSize=25;" vertex="1" parent="1">
          <mxGeometry x="40" y="20" width="180" height="60" as="geometry" />
        </mxCell>
        <mxCell id="ZVJcNq3bWCPfg_cjgLPd-8" value="Phone_number" style="rounded=0;whiteSpace=wrap;html=1;fontSize=20;fontStyle=5" vertex="1" parent="1">
          <mxGeometry x="40" y="80" width="170" height="60" as="geometry" />
        </mxCell>
        <mxCell id="ZVJcNq3bWCPfg_cjgLPd-10" style="edgeStyle=orthogonalEdgeStyle;rounded=0;orthogonalLoop=1;jettySize=auto;html=1;entryX=0.5;entryY=0;entryDx=0;entryDy=0;" edge="1" parent="1" source="ZVJcNq3bWCPfg_cjgLPd-9" target="ZVJcNq3bWCPfg_cjgLPd-2">
          <mxGeometry relative="1" as="geometry">
            <Array as="points">
              <mxPoint x="230" y="200" />
              <mxPoint x="100" y="200" />
            </Array>
          </mxGeometry>
        </mxCell>
        <mxCell id="ZVJcNq3bWCPfg_cjgLPd-9" value="Student_ID" style="rounded=0;whiteSpace=wrap;html=1;fontSize=20;" vertex="1" parent="1">
          <mxGeometry x="210" y="80" width="120" height="60" as="geometry" />
        </mxCell>
        <mxCell id="ZVJcNq3bWCPfg_cjgLPd-11" value="Grade" style="text;html=1;strokeColor=none;fillColor=none;align=center;verticalAlign=middle;whiteSpace=wrap;rounded=0;fontSize=25;" vertex="1" parent="1">
          <mxGeometry x="40" y="310" width="80" height="30" as="geometry" />
        </mxCell>
        <mxCell id="ZVJcNq3bWCPfg_cjgLPd-12" value="Grade_ID" style="rounded=0;whiteSpace=wrap;html=1;fontSize=20;fontStyle=5" vertex="1" parent="1">
          <mxGeometry x="40" y="350" width="120" height="60" as="geometry" />
        </mxCell>
        <mxCell id="ZVJcNq3bWCPfg_cjgLPd-20" style="edgeStyle=orthogonalEdgeStyle;rounded=0;orthogonalLoop=1;jettySize=auto;html=1;exitX=0.5;exitY=0;exitDx=0;exitDy=0;" edge="1" parent="1" source="ZVJcNq3bWCPfg_cjgLPd-13">
          <mxGeometry relative="1" as="geometry">
            <mxPoint x="140" y="270" as="targetPoint" />
            <Array as="points">
              <mxPoint x="220" y="290" />
              <mxPoint x="140" y="290" />
              <mxPoint x="140" y="270" />
            </Array>
          </mxGeometry>
        </mxCell>
        <mxCell id="ZVJcNq3bWCPfg_cjgLPd-13" value="Student_ID" style="rounded=0;whiteSpace=wrap;html=1;fontSize=20;" vertex="1" parent="1">
          <mxGeometry x="160" y="350" width="120" height="60" as="geometry" />
        </mxCell>
        <mxCell id="ZVJcNq3bWCPfg_cjgLPd-30" style="edgeStyle=orthogonalEdgeStyle;rounded=0;orthogonalLoop=1;jettySize=auto;html=1;exitX=0.917;exitY=1.007;exitDx=0;exitDy=0;entryX=0.75;entryY=0;entryDx=0;entryDy=0;exitPerimeter=0;" edge="1" parent="1" source="ZVJcNq3bWCPfg_cjgLPd-14" target="ZVJcNq3bWCPfg_cjgLPd-24">
          <mxGeometry relative="1" as="geometry">
            <Array as="points">
              <mxPoint x="390" y="450" />
              <mxPoint x="440" y="450" />
              <mxPoint x="440" y="590" />
              <mxPoint x="130" y="590" />
            </Array>
          </mxGeometry>
        </mxCell>
        <mxCell id="ZVJcNq3bWCPfg_cjgLPd-14" value="Course_ID" style="rounded=0;whiteSpace=wrap;html=1;fontSize=20;" vertex="1" parent="1">
          <mxGeometry x="280" y="350" width="120" height="60" as="geometry" />
        </mxCell>
        <mxCell id="ZVJcNq3bWCPfg_cjgLPd-15" value="Grade" style="rounded=0;whiteSpace=wrap;html=1;fontSize=20;" vertex="1" parent="1">
          <mxGeometry x="400" y="350" width="120" height="60" as="geometry" />
        </mxCell>
        <mxCell id="ZVJcNq3bWCPfg_cjgLPd-16" value="Enrolling" style="text;html=1;strokeColor=none;fillColor=none;align=center;verticalAlign=middle;whiteSpace=wrap;rounded=0;fontSize=25;" vertex="1" parent="1">
          <mxGeometry x="40" y="440" width="110" height="30" as="geometry" />
        </mxCell>
        <mxCell id="ZVJcNq3bWCPfg_cjgLPd-17" value="Enrolling_ID" style="rounded=0;whiteSpace=wrap;html=1;fontSize=20;fontStyle=5" vertex="1" parent="1">
          <mxGeometry x="40" y="480" width="120" height="60" as="geometry" />
        </mxCell>
        <mxCell id="ZVJcNq3bWCPfg_cjgLPd-31" style="edgeStyle=orthogonalEdgeStyle;rounded=0;orthogonalLoop=1;jettySize=auto;html=1;entryX=0.25;entryY=0;entryDx=0;entryDy=0;" edge="1" parent="1" source="ZVJcNq3bWCPfg_cjgLPd-18" target="ZVJcNq3bWCPfg_cjgLPd-24">
          <mxGeometry relative="1" as="geometry">
            <Array as="points">
              <mxPoint x="220" y="550" />
              <mxPoint x="20" y="550" />
              <mxPoint x="20" y="590" />
              <mxPoint x="70" y="590" />
            </Array>
          </mxGeometry>
        </mxCell>
        <mxCell id="ZVJcNq3bWCPfg_cjgLPd-18" value="Course_ID" style="rounded=0;whiteSpace=wrap;html=1;fontSize=20;" vertex="1" parent="1">
          <mxGeometry x="160" y="480" width="120" height="60" as="geometry" />
        </mxCell>
        <mxCell id="ZVJcNq3bWCPfg_cjgLPd-21" style="edgeStyle=orthogonalEdgeStyle;rounded=0;orthogonalLoop=1;jettySize=auto;html=1;entryX=0.25;entryY=1;entryDx=0;entryDy=0;" edge="1" parent="1" source="ZVJcNq3bWCPfg_cjgLPd-19" target="ZVJcNq3bWCPfg_cjgLPd-2">
          <mxGeometry relative="1" as="geometry">
            <Array as="points">
              <mxPoint x="340" y="430" />
              <mxPoint x="10" y="430" />
              <mxPoint x="10" y="290" />
              <mxPoint x="70" y="290" />
            </Array>
          </mxGeometry>
        </mxCell>
        <mxCell id="ZVJcNq3bWCPfg_cjgLPd-19" value="Student_ID" style="rounded=0;whiteSpace=wrap;html=1;fontSize=20;" vertex="1" parent="1">
          <mxGeometry x="280" y="480" width="120" height="60" as="geometry" />
        </mxCell>
        <mxCell id="ZVJcNq3bWCPfg_cjgLPd-23" value="Course" style="text;html=1;strokeColor=none;fillColor=none;align=center;verticalAlign=middle;whiteSpace=wrap;rounded=0;fontSize=25;" vertex="1" parent="1">
          <mxGeometry x="40" y="560" width="110" height="30" as="geometry" />
        </mxCell>
        <mxCell id="ZVJcNq3bWCPfg_cjgLPd-24" value="Course_ID" style="rounded=0;whiteSpace=wrap;html=1;fontSize=20;fontStyle=5" vertex="1" parent="1">
          <mxGeometry x="40" y="600" width="120" height="60" as="geometry" />
        </mxCell>
        <mxCell id="ZVJcNq3bWCPfg_cjgLPd-25" value="Course Name" style="rounded=0;whiteSpace=wrap;html=1;fontSize=20;" vertex="1" parent="1">
          <mxGeometry x="160" y="600" width="140" height="60" as="geometry" />
        </mxCell>
        <mxCell id="ZVJcNq3bWCPfg_cjgLPd-26" value="Credit Hours" style="rounded=0;whiteSpace=wrap;html=1;fontSize=20;" vertex="1" parent="1">
          <mxGeometry x="300" y="600" width="120" height="60" as="geometry" />
        </mxCell>
        <mxCell id="ZVJcNq3bWCPfg_cjgLPd-45" style="edgeStyle=orthogonalEdgeStyle;rounded=0;orthogonalLoop=1;jettySize=auto;html=1;exitX=0.5;exitY=1;exitDx=0;exitDy=0;" edge="1" parent="1" source="ZVJcNq3bWCPfg_cjgLPd-27" target="ZVJcNq3bWCPfg_cjgLPd-33">
          <mxGeometry relative="1" as="geometry">
            <Array as="points">
              <mxPoint x="480" y="740" />
              <mxPoint x="110" y="740" />
            </Array>
          </mxGeometry>
        </mxCell>
        <mxCell id="ZVJcNq3bWCPfg_cjgLPd-27" value="Instructor_ID" style="rounded=0;whiteSpace=wrap;html=1;fontSize=20;" vertex="1" parent="1">
          <mxGeometry x="420" y="600" width="120" height="60" as="geometry" />
        </mxCell>
        <mxCell id="ZVJcNq3bWCPfg_cjgLPd-29" style="edgeStyle=orthogonalEdgeStyle;rounded=0;orthogonalLoop=1;jettySize=auto;html=1;exitX=0.5;exitY=1;exitDx=0;exitDy=0;entryX=0.5;entryY=1;entryDx=0;entryDy=0;" edge="1" parent="1" source="ZVJcNq3bWCPfg_cjgLPd-28" target="ZVJcNq3bWCPfg_cjgLPd-24">
          <mxGeometry relative="1" as="geometry">
            <Array as="points">
              <mxPoint x="600" y="690" />
              <mxPoint x="100" y="690" />
            </Array>
          </mxGeometry>
        </mxCell>
        <mxCell id="ZVJcNq3bWCPfg_cjgLPd-28" value="Prerequiste" style="rounded=0;whiteSpace=wrap;html=1;fontSize=20;" vertex="1" parent="1">
          <mxGeometry x="540" y="600" width="120" height="60" as="geometry" />
        </mxCell>
        <mxCell id="ZVJcNq3bWCPfg_cjgLPd-32" value="Instructor" style="text;html=1;strokeColor=none;fillColor=none;align=center;verticalAlign=middle;whiteSpace=wrap;rounded=0;fontSize=25;" vertex="1" parent="1">
          <mxGeometry x="40" y="710" width="110" height="30" as="geometry" />
        </mxCell>
        <mxCell id="ZVJcNq3bWCPfg_cjgLPd-33" value="Instructor_ID" style="rounded=0;whiteSpace=wrap;html=1;fontSize=20;fontStyle=5" vertex="1" parent="1">
          <mxGeometry x="40" y="760" width="140" height="60" as="geometry" />
        </mxCell>
        <mxCell id="ZVJcNq3bWCPfg_cjgLPd-39" value="Date of Birth" style="rounded=0;whiteSpace=wrap;html=1;fontSize=20;" vertex="1" parent="1">
          <mxGeometry x="400" y="210" width="130" height="60" as="geometry" />
        </mxCell>
        <mxCell id="ZVJcNq3bWCPfg_cjgLPd-40" value="Fname" style="rounded=0;whiteSpace=wrap;html=1;fontSize=20;" vertex="1" parent="1">
          <mxGeometry x="180" y="760" width="120" height="60" as="geometry" />
        </mxCell>
        <mxCell id="ZVJcNq3bWCPfg_cjgLPd-41" value="Lname" style="rounded=0;whiteSpace=wrap;html=1;fontSize=20;" vertex="1" parent="1">
          <mxGeometry x="300" y="760" width="120" height="60" as="geometry" />
        </mxCell>
        <mxCell id="ZVJcNq3bWCPfg_cjgLPd-42" value="Department_ID" style="rounded=0;whiteSpace=wrap;html=1;fontSize=20;" vertex="1" parent="1">
          <mxGeometry x="550" y="760" width="150" height="60" as="geometry" />
        </mxCell>
        <mxCell id="ZVJcNq3bWCPfg_cjgLPd-43" value="Email" style="rounded=0;whiteSpace=wrap;html=1;fontSize=20;" vertex="1" parent="1">
          <mxGeometry x="700" y="760" width="120" height="60" as="geometry" />
        </mxCell>
        <mxCell id="ZVJcNq3bWCPfg_cjgLPd-44" value="Date of Birth" style="rounded=0;whiteSpace=wrap;html=1;fontSize=20;" vertex="1" parent="1">
          <mxGeometry x="420" y="760" width="130" height="60" as="geometry" />
        </mxCell>
        <mxCell id="ZVJcNq3bWCPfg_cjgLPd-46" value="Instructor_phone" style="text;html=1;strokeColor=none;fillColor=none;align=center;verticalAlign=middle;whiteSpace=wrap;rounded=0;fontSize=25;" vertex="1" parent="1">
          <mxGeometry x="40" y="840" width="200" height="30" as="geometry" />
        </mxCell>
        <mxCell id="ZVJcNq3bWCPfg_cjgLPd-47" value="Phone_number" style="rounded=0;whiteSpace=wrap;html=1;fontSize=20;fontStyle=5" vertex="1" parent="1">
          <mxGeometry x="40" y="880" width="160" height="60" as="geometry" />
        </mxCell>
        <mxCell id="ZVJcNq3bWCPfg_cjgLPd-49" style="edgeStyle=orthogonalEdgeStyle;rounded=0;orthogonalLoop=1;jettySize=auto;html=1;entryX=0.75;entryY=1;entryDx=0;entryDy=0;exitX=0.75;exitY=0;exitDx=0;exitDy=0;" edge="1" parent="1" source="ZVJcNq3bWCPfg_cjgLPd-48" target="ZVJcNq3bWCPfg_cjgLPd-33">
          <mxGeometry relative="1" as="geometry">
            <Array as="points">
              <mxPoint x="290" y="840" />
              <mxPoint x="145" y="840" />
            </Array>
          </mxGeometry>
        </mxCell>
        <mxCell id="ZVJcNq3bWCPfg_cjgLPd-48" value="Instructor_ID" style="rounded=0;whiteSpace=wrap;html=1;fontSize=20;fontStyle=0" vertex="1" parent="1">
          <mxGeometry x="200" y="880" width="120" height="60" as="geometry" />
        </mxCell>
        <mxCell id="ZVJcNq3bWCPfg_cjgLPd-50" value="Department" style="text;html=1;strokeColor=none;fillColor=none;align=center;verticalAlign=middle;whiteSpace=wrap;rounded=0;fontSize=25;" vertex="1" parent="1">
          <mxGeometry x="40" y="970" width="140" height="30" as="geometry" />
        </mxCell>
        <mxCell id="ZVJcNq3bWCPfg_cjgLPd-51" value="Department_ID" style="rounded=0;whiteSpace=wrap;html=1;fontSize=20;fontStyle=5" vertex="1" parent="1">
          <mxGeometry x="40" y="1010" width="160" height="60" as="geometry" />
        </mxCell>
        <mxCell id="ZVJcNq3bWCPfg_cjgLPd-52" value="Department Name" style="rounded=0;whiteSpace=wrap;html=1;fontSize=20;" vertex="1" parent="1">
          <mxGeometry x="200" y="1010" width="180" height="60" as="geometry" />
        </mxCell>
        <mxCell id="ZVJcNq3bWCPfg_cjgLPd-54" style="edgeStyle=orthogonalEdgeStyle;rounded=0;orthogonalLoop=1;jettySize=auto;html=1;entryX=0;entryY=0.5;entryDx=0;entryDy=0;" edge="1" parent="1" source="ZVJcNq3bWCPfg_cjgLPd-53" target="ZVJcNq3bWCPfg_cjgLPd-33">
          <mxGeometry relative="1" as="geometry">
            <Array as="points">
              <mxPoint x="465" y="960" />
              <mxPoint x="20" y="960" />
              <mxPoint x="20" y="790" />
            </Array>
          </mxGeometry>
        </mxCell>
        <mxCell id="ZVJcNq3bWCPfg_cjgLPd-53" value="Department Head" style="rounded=0;whiteSpace=wrap;html=1;fontSize=20;" vertex="1" parent="1">
          <mxGeometry x="380" y="1010" width="170" height="60" as="geometry" />
        </mxCell>
      </root>
    </mxGraphModel>
  </diagram>
</mxfile>
